<?xml version="1.0" standalone="no"?>
<svg xmlns:xlink="http://www.w3.org/1999/xlink" id="wave" style="transform:rotate(0deg); transition: 0.3s" viewBox="0 0 1440 220" version="1.1" xmlns="http://www.w3.org/2000/svg"><defs><linearGradient id="sw-gradient-0" x1="0" x2="0" y1="1" y2="0"><stop stop-color="rgba(62, 230.737, 243, 1)" offset="0%"/><stop stop-color="rgba(11, 230.204, 255, 1)" offset="100%"/></linearGradient></defs><path style="transform:translate(0, 0px); opacity:1" fill="url(#sw-gradient-0)" d="M0,154L26.7,135.7C53.3,117,107,81,160,84.3C213.3,88,267,132,320,135.7C373.3,139,427,103,480,102.7C533.3,103,587,139,640,143C693.3,147,747,117,800,110C853.3,103,907,117,960,117.3C1013.3,117,1067,103,1120,80.7C1173.3,59,1227,29,1280,47.7C1333.3,66,1387,132,1440,143C1493.3,154,1547,110,1600,88C1653.3,66,1707,66,1760,62.3C1813.3,59,1867,51,1920,69.7C1973.3,88,2027,132,2080,139.3C2133.3,147,2187,117,2240,110C2293.3,103,2347,117,2400,102.7C2453.3,88,2507,44,2560,44C2613.3,44,2667,88,2720,102.7C2773.3,117,2827,103,2880,102.7C2933.3,103,2987,117,3040,110C3093.3,103,3147,73,3200,58.7C3253.3,44,3307,44,3360,44C3413.3,44,3467,44,3520,51.3C3573.3,59,3627,73,3680,95.3C3733.3,117,3787,147,3813,161.3L3840,176L3840,220L3813.3,220C3786.7,220,3733,220,3680,220C3626.7,220,3573,220,3520,220C3466.7,220,3413,220,3360,220C3306.7,220,3253,220,3200,220C3146.7,220,3093,220,3040,220C2986.7,220,2933,220,2880,220C2826.7,220,2773,220,2720,220C2666.7,220,2613,220,2560,220C2506.7,220,2453,220,2400,220C2346.7,220,2293,220,2240,220C2186.7,220,2133,220,2080,220C2026.7,220,1973,220,1920,220C1866.7,220,1813,220,1760,220C1706.7,220,1653,220,1600,220C1546.7,220,1493,220,1440,220C1386.7,220,1333,220,1280,220C1226.7,220,1173,220,1120,220C1066.7,220,1013,220,960,220C906.7,220,853,220,800,220C746.7,220,693,220,640,220C586.7,220,533,220,480,220C426.7,220,373,220,320,220C266.7,220,213,220,160,220C106.7,220,53,220,27,220L0,220Z"/></svg>