<?xml version="1.0" standalone="no"?><svg xmlns="http://www.w3.org/2000/svg" viewBox="0 0 1440 320"><path fill="#0099ff" fill-opacity="1" d="M0,128L21.8,112C43.6,96,87,64,131,96C174.5,128,218,224,262,234.7C305.5,245,349,171,393,138.7C436.4,107,480,117,524,144C567.3,171,611,213,655,197.3C698.2,181,742,107,785,69.3C829.1,32,873,32,916,42.7C960,53,1004,75,1047,106.7C1090.9,139,1135,181,1178,186.7C1221.8,192,1265,160,1309,144C1352.7,128,1396,128,1418,128L1440,128L1440,0L1418.2,0C1396.4,0,1353,0,1309,0C1265.5,0,1222,0,1178,0C1134.5,0,1091,0,1047,0C1003.6,0,960,0,916,0C872.7,0,829,0,785,0C741.8,0,698,0,655,0C610.9,0,567,0,524,0C480,0,436,0,393,0C349.1,0,305,0,262,0C218.2,0,175,0,131,0C87.3,0,44,0,22,0L0,0Z"></path></svg>